PathFileType	4	(X/Y/Z)	22_coords_data.trc
DataRate	CameraRate	NumFrames	NumMarkers	Units	OrigDataRate	OrigDataStartFrame	OrigNumFrames
30.0	30.0	9	21	m	30.0	11	63
Frame#	Time	THUMB_TIP	THUMB_IP	THUMB_MCP	THUMB_CMC	INDEX_TIP	INDEX_DIP	INDEX_PIP	INDEX_MCP	MIDDLE_TIP	MIDDLE_DIP	MIDDLE_PIP	MIDDLE_MCP	RING_TIP	RING_DIP	RING_PIP	RING_MCP	PINKY_TIP	PINKY_DIP	PINKY_PIP	PINKY_MCP	WRIST
X1	Y1	Z1	X2	Y2	Z2	X3	Y3	Z3	X4	Y4	Z4	X5	Y5	Z5	X6	Y6	Z6	X7	Y7	Z7	X8	Y8	Z8	X9	Y9	Z9	X10	Y10	Z10	X11	Y11	Z11	X12	Y12	Z12	X13	Y13	Z13	X14	Y14	Z14	X15	Y15	Z15	X16	Y16	Z16	X17	Y17	Z17	X18	Y18	Z18	X19	Y19	Z19	X20	Y20	Z20	X21	Y21	Z21
9	0.33333333333333187	0.5453908994745312	-0.023909834020388265	-0.11879851084623189	0.5240213550623407	-0.020933817368909313	-0.1267033129630173	0.49596567036493133	-0.017557460726980556	-0.11365345579958208	0.4735494339807458	-0.03037460557707089	-0.07727869608546001	0.5572027454523089	0.06930805640295246	-0.1584997063385921	0.5474213524823272	0.0567174279421816	-0.1499089888755615	0.533283847847656	0.042911483347984836	-0.134367538185017	0.5105929920920347	0.020277264192873623	-0.10632376379004693	0.5295128398161953	-0.019271321868401747	-0.11878434326181833	0.5442346568402363	-0.009922083842330898	-0.1236689979929664	0.5534754663383893	0.015933478453342254	-0.11389623542584054	0.521481211281703	0.023296630194357848	-0.08359277752403532	0.5425573241997206	-0.02279663538694121	-0.11091382719798376	0.5573385587449347	-0.012553439329761329	-0.10965206658140605	0.5654611056235805	0.006727641660449923	-0.09614487860414317	0.5330899358091626	0.008588545178788931	-0.07199192356875356	0.5983285904099194	0.02045233401354296	-0.08266819207558662	0.5839912698484689	0.01134132493726897	-0.08056325674872739	0.5655092744532363	0.0021705456326058248	-0.07667421160168114	0.5336609229809927	-0.012103449981725911	-0.06757371663148981	0.462283081001861	-0.023011742144276925	-0.051989820119430985
10	0.3666666666666651	0.5454666734756681	-0.023931483460697234	-0.11873864909039669	0.52409865256817	-0.0209609053076108	-0.126649612870691	0.49602995623662904	-0.017597646651561716	-0.1136243766939361	0.4735575046621958	-0.030382269806674633	-0.07727286598232319	0.5574802547495663	0.06924844522556922	-0.15830690216171475	0.5476527196394789	0.05667293216132596	-0.14974676052555888	0.5334449259761279	0.042883887693591194	-0.13425448229133916	0.5106494046869867	0.02026357808439594	-0.1062844644804678	0.5296136777394613	-0.019278859809038096	-0.11874411336284324	0.5443247773701768	-0.009903153073258841	-0.1236102895680195	0.5535471023701746	0.015953886915549387	-0.11382398512703712	0.5215307907444775	0.023273745300940563	-0.08353333666742052	0.5426227837287141	-0.022803506924602868	-0.11083066141708339	0.5574023263305594	-0.012564542224730357	-0.1095158525507432	0.5655552823253892	0.006690696866521739	-0.09599013426722536	0.5331156658604087	0.008569638886898934	-0.07193058949827691	0.5983791817715942	0.020341595817192304	-0.08266120945755628	0.5840395459041117	0.011239114491308433	-0.08053525628310892	0.5655540673551364	0.002087529441437641	-0.07661765588358432	0.5336815658676359	-0.012111544885951397	-0.06748456286015792	0.4622830810018609	-0.023011742144276925	-0.051989820119430985
11	0.39999999999999825	0.545530815897959	-0.023944025271963265	-0.11863543114323055	0.52418037219725	-0.020980240358360436	-0.12659624346162823	0.49610431958740564	-0.017629905991398243	-0.11358353699914306	0.473564486426881	-0.03039366178655778	-0.07726642726974359	0.5578106966689503	0.06919163849330795	-0.1580635398931239	0.5479233044799123	0.05663549385210259	-0.14954399134585455	0.5336348635566956	0.0428656210024122	-0.13410893738783072	0.5107143954075739	0.0202559147559378	-0.1062326137910356	0.5296859472977202	-0.019267702238138673	-0.11868029719748002	0.5443973336535516	-0.009874827268878394	-0.12351237866422915	0.5536314302237741	0.01597502340507989	-0.11371818494213706	0.5215777690312362	0.0232638057302611	-0.08345956009945593	0.5426877002577793	-0.02280385515707678	-0.11074967343541964	0.5574787544711848	-0.012587822208095234	-0.10938681392636396	0.5656500929847137	0.00665045376006046	-0.09584805683162273	0.5331395381521841	0.008544428436872586	-0.07188563795529301	0.5984472668895281	0.020221606711105122	-0.08259202579946406	0.5841015998552744	0.011126573518713156	-0.08047490308889299	0.5656134771413277	0.001991454297975259	-0.07653143579006183	0.5337024629437805	-0.012116312244393135	-0.06739132927700703	0.4622830810018608	-0.023011742144276925	-0.051989820119430985
12	0.43333333333333146	0.5456222295400218	-0.023964630453146618	-0.118547079987768	0.524280538072573	-0.021002050712628284	-0.12653177325609652	0.4961909377386695	-0.017667116164225838	-0.11354437302974477	0.47357709740489906	-0.03039454546868081	-0.07726053683979872	0.5581723531947559	0.06911136868160289	-0.15780576198516166	0.5482230883798279	0.05657174294319661	-0.1493340492903675	0.5338439654059693	0.04282072612822907	-0.1339665448717206	0.5107935432818466	0.02020589465205902	-0.1062017554577131	0.5297847209647888	-0.01931637062307595	-0.11865934039779305	0.5444907641024069	-0.00989926341133518	-0.12346042225473872	0.5537365305042791	0.01593725411891217	-0.11364208657341093	0.521622326110001	0.02321630896437754	-0.08344537884426867	0.5427622865714874	-0.022837026101596936	-0.11071033199881539	0.5575613380529886	-0.01263777987713266	-0.10930909979085252	0.5657274681744539	0.0065918643240232555	-0.09575494611988322	0.5331633127700401	0.008502893891230545	-0.07186677786046114	0.5985417980024736	0.020060919531784627	-0.08247551541952186	0.5841765378483852	0.010993467294857728	-0.08037299059531505	0.5656715864857527	0.0018860670093880372	-0.07644437072227667	0.5337174705139435	-0.012151084901615927	-0.06734622312578364	0.4622830810018609	-0.023011742144276925	-0.051989820119430985
13	0.4666666666666647	0.545737415710836	-0.024024400915879596	-0.11845740358442544	0.5243990174207097	-0.021070287342722815	-0.1264540260845083	0.49629201083581376	-0.01774746836583868	-0.11350122504058452	0.4735750885747627	-0.03040659852343297	-0.07725791025511752	0.5585459624842471	0.06902577215465411	-0.15753978835663404	0.5485304999453995	0.056505179178058806	-0.14911807465647953	0.5340655116360337	0.042771650990773624	-0.13381565165425674	0.5108824839245031	0.02017206942298655	-0.10614902495190379	0.529872804476829	-0.01935438720847671	-0.11857631541677813	0.5445850253419687	-0.009938585445070758	-0.12336100290579849	0.5538408663803143	0.015889098903106247	-0.11352892896975544	0.5216801119408789	0.023182883382716235	-0.08338536410341385	0.5428450049791785	-0.02288428643192364	-0.11064096504275805	0.557652515276982	-0.01270296802584997	-0.1091993013182408	0.5658079310623083	0.006523484470720764	-0.09563417335107582	0.5332015952640565	0.008455448528748744	-0.07180529980048322	0.5986791864444453	0.01985240645853198	-0.08225664239065317	0.584283920660252	0.010823181050464259	-0.08019523230706	0.5657606994333835	0.0017417939967496188	-0.07629257890698604	0.5337417992077879	-0.012189727693207475	-0.06726007190474037	0.4622830810018608	-0.023011742144276925	-0.051989820119430985
14	0.4999999999999978	0.5458350740326786	-0.024129860507121015	-0.11834565492246973	0.5245154211671539	-0.02115683947658692	-0.12638515413856058	0.4964008663839551	-0.01782563894115413	-0.11345090068753946	0.473586256211756	-0.030424033438060438	-0.0772478066375703	0.5589199422621165	0.06896888167137366	-0.15724258718245504	0.5488450964696945	0.05645831510937771	-0.14887699057750303	0.534300215714026	0.04273488768015432	-0.13364138043552892	0.5109947610425936	0.020153687732856362	-0.1060627422258936	0.5299584106138961	-0.0194053652715816	-0.11847437617540452	0.5446942800704698	-0.010014951155783047	-0.12323612733360567	0.5539427508252549	0.015801823493418576	-0.11336852958084814	0.5217453947136429	0.023169059889564303	-0.08328195436356317	0.5429125483361676	-0.022962334511068327	-0.11051115071184206	0.557726421740202	-0.012792823716663682	-0.10905162853944064	0.5658809375921995	0.0064339138499022175	-0.09548636360410184	0.5332519334058136	0.008412825121513756	-0.0716923973524678	0.5988401952188204	0.01960294412727337	-0.08198726664799988	0.5844199213904583	0.010602839194995883	-0.07997385811443125	0.5658656884180268	0.001573662050426583	-0.07609746573275433	0.5337755544821623	-0.012240118484765694	-0.06713720779540516	0.4622830810018608	-0.023011742144276925	-0.051989820119430985
15	0.533333333333331	0.5459112480952073	-0.024217843097071978	-0.11822152909534006	0.5246198264896259	-0.02122125779292039	-0.1263268262847297	0.4964939605588099	-0.017861627990988282	-0.1134245569790713	0.4736327983617672	-0.030406226686147175	-0.07723215022602531	0.5591719444783797	0.06910877228773682	-0.15685731164671013	0.5490755021272332	0.05655257260692548	-0.148586658623788	0.5344935449965041	0.042764251721460145	-0.1334453718093518	0.5111185302903996	0.020104950869699045	-0.1059899376223137	0.5300314490073735	-0.019516955007012504	-0.1184261163875133	0.5447750962887473	-0.010129086107973084	-0.12316877201246565	0.5540342332072775	0.015668653036837565	-0.11326147225217698	0.5218241104505832	0.02311724746400423	-0.08320861291968995	0.5429679219920208	-0.023051817030002586	-0.11044499859780973	0.5577971957178295	-0.012904870443815497	-0.10898482198448181	0.5659427025691827	0.0063153607502132725	-0.0954049320739323	0.5332961381084572	0.008346054685889503	-0.07163943302486298	0.5989666732291011	0.01940154008685907	-0.08171752932337284	0.5845197683726429	0.01042768329006244	-0.07977927385542555	0.5659414258994445	0.001428357041288797	-0.07594921680406391	0.533795059158628	-0.012333226368387629	-0.06711103947932934	0.462283081001861	-0.023011742144276925	-0.051989820119430985
16	0.5666666666666642	0.546028050248239	-0.02422320389374577	-0.11807494508155986	0.5247602728180625	-0.02123300721562954	-0.1262444228498544	0.4966212625244537	-0.017874760045878013	-0.11337048500461683	0.4736902755459095	-0.030388242832288692	-0.07721149463231747	0.55908639523042	0.06972458985502783	-0.15631274725069355	0.5490618253923939	0.057014418967865854	-0.14819119840939018	0.5345476991452764	0.04299336298008283	-0.13319920183554476	0.5112469668807458	0.02004184258140196	-0.10592394415893239	0.5301145118909646	-0.01955953517628789	-0.11836343813335043	0.5448701955298123	-0.010203878425508128	-0.1231322416637794	0.5540805116560144	0.01560530008170613	-0.11320924153084713	0.5218773529738129	0.023083821375637192	-0.08315635130136706	0.5429849310130314	-0.023103931078885698	-0.11038030120087286	0.5578453597137479	-0.013000828643618179	-0.10893289662252886	0.5660060528628581	0.006201837793967213	-0.0953372845357966	0.5333239749522948	0.008291513405537354	-0.07162577101838735	0.5989906839104696	0.01943114355052461	-0.08139363377579689	0.5845424890197538	0.010434902295082538	-0.07957228601280064	0.5659695242789765	0.0013799935453596701	-0.07584862823152738	0.5337977065683281	-0.012414585628290453	-0.06715568962512303	0.4622830810018609	-0.023011742144276925	-0.051989820119430985
17	0.5999999999999973	0.5461779371038329	-0.024124364743948135	-0.1178229549189802	0.5249459888039519	-0.021189561108504618	-0.1261049413360525	0.49677487407026344	-0.017884767820888603	-0.11328750649176769	0.4737423790720422	-0.03038549297903742	-0.07718866932659935	0.5589849901885097	0.07018230780082696	-0.15592786582439813	0.5490229322247295	0.05734722311170998	-0.14792674076916493	0.5345627795220416	0.04313431424740882	-0.13306379898666387	0.5112849873471489	0.02001698567407445	-0.10590924862958734	0.5298438555883924	-0.01952408093449881	-0.1180827140712711	0.5446386502246002	-0.010303574736759469	-0.12299151403968334	0.5539737951706322	0.015519350412571797	-0.11322211510379096	0.5218708583346242	0.023132952713843746	-0.08309600636898506	0.5429166607012681	-0.02296457210035341	-0.11018033949611758	0.5578389199417253	-0.012945134263876557	-0.10878856199896916	0.5660844799107518	0.00622860198295816	-0.0952033289080721	0.5333257468687754	0.008305697674600543	-0.07159672142261814	0.5989089083140573	0.01973466091970194	-0.08102054176651163	0.5844814635009886	0.010677291089982	-0.07934337512793999	0.5659465624055042	0.0014942537953963608	-0.07574597517424325	0.5337853166580241	-0.012432560067833387	-0.0672264928784021	0.4622830810018609	-0.023011742144276925	-0.051989820119430985
